<svg width="301" height="84" viewBox="0 0 301 84" fill="none" xmlns="http://www.w3.org/2000/svg">
<path d="M15.9756 24.9836C15.9756 24.9836 17.5504 27.9732 10.8774 37.5022C4.2044 47.0313 3.40364 53.2506 5.03186 59.0161C6.66007 64.7815 18.2711 75.8588 14.641 83.9998C14.641 83.9998 19.3121 80.0494 16.6429 72.0952C13.9737 64.1409 8.31498 60.2439 8.9289 52.7167C9.54282 45.1629 21.0738 29.3611 15.9756 24.9836Z" fill="url(#paint0_radial_141_17679)"/>
<path d="M5.21873 0C5.21873 0 1.45515 12.1449 5.45896 23.4623C9.46277 34.7798 14.2673 36.8885 16.7764 46.0705C19.2855 55.2526 18.9652 60.7779 15.2016 64.5415C15.2016 64.5415 18.111 57.7884 13.5733 48.2059C9.0357 38.6234 3.6439 33.4185 1.56191 26.0782C-0.520069 18.7378 -1.53437 12.7588 5.21873 0Z" fill="url(#paint1_radial_141_17679)"/>
<path d="M2.06914 11.6111C2.06914 11.6111 2.49622 24.3699 9.35608 34.1659C16.2159 43.9619 20.9138 55.9733 15.6821 64.0076C15.6821 64.0076 18.9652 56.9075 13.5467 46.1506C8.12825 35.3937 6.74026 35.3403 4.36466 29.6816C1.98907 24.0229 0.894692 15.7484 2.06914 11.6111Z" fill="url(#paint2_radial_141_17679)"/>
<path d="M11.9718 19.0851C14.6843 19.0851 16.8832 16.456 16.8832 13.2128C16.8832 9.96968 14.6843 7.34058 11.9718 7.34058C9.25937 7.34058 7.06049 9.96968 7.06049 13.2128C7.06049 16.456 9.25937 19.0851 11.9718 19.0851Z" fill="#097A4C"/>
<path d="M13.1464 17.9904C15.107 17.9904 16.6964 15.8991 16.6964 13.3193C16.6964 10.7395 15.107 8.64819 13.1464 8.64819C11.1857 8.64819 9.59631 10.7395 9.59631 13.3193C9.59631 15.8991 11.1857 17.9904 13.1464 17.9904Z" fill="url(#paint3_radial_141_17679)"/>
<path d="M87.25 55.3299C87.0068 55.1909 86.5202 55.3299 84.7478 54.4263C83.0101 53.5227 82.2802 51.9588 81.9327 51.1594C81.5852 50.4296 70.881 25.9629 68.761 21.0974C68.622 20.7846 68.1702 20.7846 68.0312 21.0974C65.8069 26.0672 54.4077 51.6807 53.5388 52.8624C52.6005 54.183 50.7238 54.9128 50.411 54.9128C50.133 54.9128 50.0634 56.025 50.6195 56.2682C51.1756 56.5115 53.6778 56.0597 55.8673 56.0597C58.0568 56.0597 61.4279 56.4768 61.845 56.4768C62.262 56.4768 62.4358 56.2682 62.4011 55.5384C62.3663 54.8086 61.9493 54.8086 61.0457 54.6696C60.1421 54.5306 57.6398 53.627 57.3617 52.2021C57.0837 50.7771 58.0916 48.3791 58.8909 46.7109C59.6902 45.0775 59.9683 44.452 61.0457 44.0002C62.123 43.5484 71.8193 43.8264 72.4449 44.3477C73.0705 44.8342 75.7813 50.7771 75.677 52.2716C75.5727 53.7312 72.7577 55.0519 72.4102 55.0519C72.0626 55.0519 72.1321 56.0945 72.4449 56.303C72.7924 56.5115 73.5918 56.303 74.2869 56.1987C74.9819 56.0945 79.2219 56.1292 80.7858 56.1292C82.3497 56.1292 87.2153 56.581 87.3195 56.5115C87.389 56.442 87.4933 55.4689 87.25 55.3299ZM71.3328 41.9497L61.4279 41.5674C61.1152 41.5326 60.9066 41.2198 61.0457 40.9071L65.9807 30.2029C66.1545 29.8553 66.641 29.8553 66.8148 30.2029L71.7846 41.2894C71.9236 41.6021 71.6803 41.9844 71.3328 41.9497Z" fill="#02C5FF"/>
<path d="M96.4945 37.8837V34.1303C96.4945 33.748 96.0774 33.5395 95.7646 33.748C95.0001 34.3041 93.7142 35.1382 92.7063 35.4857C91.1424 36.0765 88.084 36.8063 88.084 36.8063C88.084 36.8063 87.5975 38.1617 88.5358 38.1617C89.4742 38.1617 91.1076 38.127 91.1771 39.3086C91.2466 40.4903 91.3857 53.2797 91.1771 53.6619C90.9686 54.0442 88.9181 54.9478 88.8486 55.2259C88.7791 55.5039 88.9181 56.199 89.0572 56.2337C89.1962 56.2685 91.768 56.0252 92.4283 55.9557C93.0886 55.8862 95.1391 55.7472 96.703 55.9209C98.3017 56.06 100.283 56.2685 100.804 56.2685C101.291 56.2685 101.325 55.0174 101.082 54.9478C100.839 54.8783 99.4833 54.9131 98.0932 54.1138C96.703 53.3144 96.6335 52.237 96.4597 49.8738C96.286 47.5453 96.425 40.5598 96.6335 40.1427C96.842 39.7257 99.3443 37.2929 101.499 37.7447C103.654 38.1965 106.052 39.8299 106.226 43.0968C106.399 46.3289 106.226 52.0285 106.226 53.0016C106.226 53.9747 104.592 54.8436 104.245 54.9826C103.897 55.1216 103.723 55.0521 103.758 55.4344C103.793 55.8167 103.758 56.1295 104.071 56.1642C104.384 56.199 108.693 55.7819 109.458 55.8514C110.222 55.9209 113.871 56.2337 114.705 56.1642C115.54 56.0947 115.435 54.8783 115.157 54.8436C114.879 54.7741 113.489 54.7741 112.655 54.2528C111.821 53.7315 111.369 53.5577 111.439 51.0554C111.473 48.5531 112.307 40.2817 109.77 37.4667C107.233 34.6516 104.279 34.8254 102.507 34.8254C100.908 34.7906 98.8577 35.9375 96.981 38.127C96.8073 38.266 96.4945 38.1617 96.4945 37.8837Z" fill="#02C5FF"/>
<path d="M133.855 53.3841C130.588 53.1409 123.776 53.3494 122.282 52.5153C120.961 51.7507 121.065 49.7002 122.143 48.9356C122.386 48.7619 122.664 48.7271 122.907 48.7619C124.471 49.0052 131.005 49.7697 133.716 46.6071C136.774 42.9927 135.488 40.3167 135.488 40.3167C135.488 40.3167 137.052 39.6564 137.261 38.7528C137.469 37.8492 137.956 34.8256 137.852 33.922C137.747 33.0184 137.087 32.9836 136.774 33.922C136.461 34.8603 135.94 36.0072 134.55 36.598C133.195 37.1889 132.395 36.5633 132.048 36.1115C131.7 35.6597 128.364 33.8177 124.298 34.7908C120.197 35.7639 117.555 38.579 117.347 41.9154C117.173 44.7652 119.432 47.0937 120.892 47.8235C121.17 47.9625 121.17 48.3101 120.961 48.4838C120.023 49.2484 118.355 50.8471 118.424 52.8281C118.494 54.6353 119.536 55.8864 120.231 56.512C120.44 56.7205 120.37 57.068 120.058 57.1723C118.945 57.4503 116.965 58.2497 116.721 60.2654C116.374 63.0804 118.806 64.9572 123.742 64.9224C128.642 64.8876 133.612 64.9572 136.149 61.4123C138.72 57.9021 137.122 53.5927 133.855 53.3841ZM126.418 36.0072C128.711 36.0072 130.588 38.6485 130.588 41.9154C130.588 45.1822 128.711 47.8235 126.418 47.8235C124.124 47.8235 122.247 45.1822 122.247 41.9154C122.247 38.6485 124.124 36.0072 126.418 36.0072ZM133.16 61.308C132.187 63.2195 129.962 63.9493 126.383 63.8798C122.803 63.8103 119.919 61.1342 120.614 59.5008C120.961 58.6667 121.552 58.1107 122.073 57.7979C122.49 57.5198 123.046 57.4503 123.533 57.6241C125.236 58.1802 129.267 58.2149 130.449 58.3887C131.804 58.5277 134.133 59.3965 133.16 61.308Z" fill="#02C5FF"/>
<path d="M156.792 51.1943C155.889 52.1327 151.788 54.6697 147.895 52.376C145.185 50.812 144.212 47.3714 143.864 45.4252C143.725 44.6606 144.316 43.9655 145.08 43.9655H157.522C158.113 43.9655 158.565 43.4095 158.461 42.8187C158.217 41.6718 157.627 39.8298 156.063 38.0921C153.595 35.3466 150.293 34.0607 147.27 34.721C144.246 35.3466 138.964 39.4475 138.998 46.1203C139.033 52.793 143.934 56.4769 147.687 56.9287C151.44 57.3805 156.306 54.8087 157.835 52.5845C159.399 50.3602 157.696 50.256 156.792 51.1943ZM146.783 36.7367C147.965 35.9722 149.981 35.8679 151.718 38.1617C152.379 39.0305 152.796 39.8646 153.074 40.5597C153.421 41.4633 152.726 42.4016 151.788 42.4364L144.698 42.5406C144.212 42.5406 143.829 42.1236 143.864 41.637C144.073 39.6561 145.775 37.3971 146.783 36.7367Z" fill="#02C5FF"/>
<path d="M168.609 19.4641C168.852 19.2903 169.199 19.4641 169.199 19.7769V51.8547C169.199 51.8547 169.026 53.4186 170.833 54.3222C172.64 55.191 173.196 54.6002 173.3 54.9825C173.405 55.3648 173.613 56.2337 173.196 56.2684C172.779 56.3032 167.948 55.8166 166.28 55.8861C164.612 55.9556 162.596 55.9556 162.005 56.0946C161.415 56.2337 161.032 55.6776 161.241 55.1563C161.449 54.635 163.361 54.1137 163.639 52.8625C163.847 51.8199 163.708 32.3925 163.674 25.6851C163.674 24.4339 162.631 23.4261 161.415 23.4261H160.546V22.2792C160.546 22.2792 163.604 21.8274 165.377 21.2018C166.593 20.7848 167.879 19.9507 168.609 19.4641Z" fill="#02C5FF"/>
<path d="M173.509 43.3052L182.197 39.8993C182.684 39.6908 183.24 40.0731 183.24 40.6291V44.0697C183.24 44.3825 183.032 44.6953 182.719 44.7996L173.996 47.7884C173.509 47.9622 172.988 47.5799 172.988 47.0586V44.0002C173.022 43.6875 173.196 43.4094 173.509 43.3052Z" fill="#02C5FF"/>
<path d="M184.317 21.3062H210.418V28.1527C210.418 28.1527 210.348 29.4038 209.514 29.6124C208.68 29.8209 209.236 27.8052 208.61 26.3803C207.985 24.9554 206.664 23.9127 202.737 23.739C198.81 23.5652 195.717 22.9396 195.265 25.4767C194.917 27.3186 195.056 32.3232 195.161 34.9297C195.195 35.7985 195.925 36.4936 196.794 36.4936H201.416C201.416 36.4936 203.154 36.5284 203.988 35.2425C204.822 33.9566 205.309 31.9061 206.073 31.9061C206.838 31.9061 207.081 32.6359 206.907 33.6786C206.768 34.7212 207.185 43.4444 207.185 43.9309C207.185 44.4175 206.073 44.4175 205.934 43.6877C205.795 42.9578 205.761 41.7762 204.857 40.4903C203.953 39.2044 202.737 38.8221 200.304 38.7526C199.192 38.7179 198.08 38.7179 197.176 38.7179C196.134 38.7179 195.3 39.5867 195.3 40.6293V49.1788C195.3 49.1788 194.952 53.2102 197.454 53.801C199.957 54.3918 205.691 53.245 207.603 52.2023C209.514 51.1597 211.043 49.1788 211.599 48.2752C212.155 47.3368 212.155 47.5801 212.746 47.6148C213.337 47.6496 212.503 53.2102 210.557 54.7394C208.61 56.2685 207.116 56.5813 205.17 56.8594C203.224 57.1374 196.829 55.9905 194.848 55.9905C192.902 55.9905 187.862 56.4423 186.924 56.5118C185.986 56.6161 185.603 56.2685 185.742 55.643C185.881 55.0174 188.071 54.7394 188.696 53.1755C189.322 51.6115 189.322 26.4498 189.322 26.4498C189.322 26.4498 189.426 24.1908 187.584 23.5652C185.742 22.9396 184.491 23.0786 184.178 22.9744C183.866 22.8701 183.866 21.2019 184.317 21.3062Z" fill="#02C5FF"/>
<path d="M234.85 53.7664C233.668 54.253 232.764 53.6622 232.347 52.8628C231.965 52.0287 232.73 41.8111 232.104 38.857C231.478 35.903 227.517 34.2 223.346 34.6171C219.176 35.0341 216.43 36.7718 215.978 38.4747C215.526 40.1777 215.735 41.3941 217.16 41.4636C218.585 41.5678 219.697 41.255 220.67 40.3862C221.643 39.5174 220.774 38.7875 220.774 38.0229C220.774 37.2584 221.33 36.0072 223.45 36.2853C225.57 36.5633 227.273 38.6833 227.517 39.7954C227.69 40.5252 227.621 42.1239 227.586 43.1665C227.551 43.6878 227.134 44.1049 226.613 44.1744C216.812 45.0085 214.97 50.152 215.179 52.272C215.387 54.4615 216.291 57.3808 220.531 56.8943C223.624 56.512 225.953 54.9828 226.995 54.1487C227.273 53.9402 227.69 54.0097 227.864 54.3225C228.455 55.4346 229.845 56.7553 230.992 56.7205C232.382 56.651 233.981 56.1297 234.815 55.5041C235.614 54.8785 236.135 54.3572 236.135 53.9402C236.101 53.4884 236.031 53.3146 234.85 53.7664ZM225.953 53.3494C224.076 54.531 221.956 54.114 221.191 52.6195C220.427 51.1251 220.601 48.7271 222.338 47.3717C223.52 46.4334 224.806 45.8078 225.953 45.5645C226.717 45.4255 227.412 46.0163 227.447 46.7809C227.447 48.7966 227.308 52.5153 225.953 53.3494Z" fill="#02C5FF"/>
<path d="M245.519 34.165V38.5092C245.519 38.7873 245.832 38.8915 246.005 38.7177C247.152 37.4319 249.967 34.4778 251.01 34.4778C252.331 34.4778 255.18 37.2233 255.354 37.7099C255.528 38.1964 253.234 41.6371 252.539 41.7066C251.844 41.7761 250.836 39.9689 249.516 39.6213C248.195 39.2738 246.179 39.6213 245.623 42.1236C245.067 44.6259 245.415 50.8121 245.415 51.5071C245.38 52.2022 245.693 53.5924 247.5 54.3222C249.307 55.052 250.002 54.635 250.141 55.1911C250.28 55.7471 250.106 56.5812 249.446 56.5117C248.786 56.4422 244.789 55.8514 243.26 55.8861C241.731 55.9209 238.29 56.3032 237.873 56.0251C237.456 55.7471 237.456 54.6002 237.873 54.6002C238.29 54.6002 240.341 54.3222 240.341 52.4455C240.341 50.5688 240.549 40.2122 240.306 39.2738C240.063 38.3007 239.68 38.1269 238.811 38.1269C237.943 38.1269 237.247 38.1964 237.247 37.8489C237.247 37.5014 237.143 36.5978 237.387 36.5978C237.63 36.5978 240.619 36.0765 242.078 35.5551C243.538 35.0338 244.824 33.887 245.137 33.887C245.449 33.887 245.554 33.9565 245.519 34.165Z" fill="#02C5FF"/>
<path d="M265.537 29.8902V34.86C265.537 35.277 265.885 35.6246 266.302 35.6246H269.395C269.395 35.6246 270.368 35.5898 270.715 35.2423C271.063 34.8947 271.341 34.4082 271.689 34.4082C272.036 34.4082 272.453 34.721 272.175 35.3465C271.897 35.9721 271.341 37.0147 271.549 37.6055C271.758 38.1964 270.02 38.0573 269.082 38.0573H266.58C265.989 38.0573 265.537 38.5439 265.537 39.1V51.5071C265.537 51.5071 265.468 53.8703 267.31 54.1484C269.151 54.4264 270.681 53.7313 271.619 53.3143C272.557 52.8625 272.627 53.1752 272.731 53.5228C272.835 53.8703 271.132 55.3995 268.908 56.4074C266.684 57.4152 262.305 57.2762 260.984 55.052C259.664 52.793 260.394 38.1616 260.394 38.1616H258.274C258.274 38.1616 257.787 38.2311 257.578 38.0226C257.37 37.8141 257.578 36.5629 258.03 36.5282C258.482 36.4934 261.054 34.6167 262.305 32.8443C263.209 31.5931 263.938 30.1335 264.634 29.5079C265.016 29.1604 265.537 29.4384 265.537 29.8902Z" fill="#02C5FF"/>
<path d="M282.81 37.849C282.601 38.0922 282.184 37.9185 282.184 37.6057C282.184 34.2346 282.149 22.6963 282.427 21.7579C282.74 20.6806 282.775 19.0471 282.08 19.1166C281.385 19.1862 280.307 20.5416 278.257 21.3061C276.207 22.0707 273.982 22.0707 273.6 22.6268C273.218 23.1828 273.565 23.9474 274.538 23.7737C275.511 23.5999 277.18 24.0169 277.145 25.5461C277.11 27.0753 277.145 52.6541 277.145 52.6541C277.145 52.6541 277.249 53.6619 276.137 54.1833C275.06 54.6698 274.538 54.6351 274.469 55.1911C274.399 55.7472 274.886 56.3032 275.581 56.3032C276.276 56.3032 280.064 55.5039 281.871 55.7819C283.713 56.06 285.972 56.5118 286.355 56.0947C286.737 55.6777 286.528 54.9131 285.903 54.7741C285.277 54.6698 283.505 54.496 282.636 53.2449C281.906 52.1675 281.976 43.6528 282.045 41.0811C282.045 40.5598 282.219 40.0385 282.567 39.6562C283.227 38.8221 284.617 37.5362 286.598 37.7099C289.552 37.988 291.116 39.8299 291.568 42.923C292.02 46.0161 291.811 52.7583 291.707 53.3492C291.602 53.94 290.56 54.9131 290.108 55.0173C289.656 55.1216 289.378 55.1216 289.378 55.5387C289.378 55.9557 289.239 56.199 289.83 56.1642C290.421 56.1295 293.931 55.8862 294.939 55.8514C295.947 55.8167 299.04 55.9905 300.117 56.0252C301.16 56.06 300.743 54.8783 300.534 54.8783C300.326 54.8783 298.519 55.0173 297.615 54.079C296.711 53.1406 296.677 51.6115 296.816 49.2482C296.955 46.8502 297.198 40.4902 295.495 37.7794C293.861 35.2077 288.162 32.3579 282.81 37.849Z" fill="#02C5FF"/>
<defs>
<radialGradient id="paint0_radial_141_17679" cx="0" cy="0" r="1" gradientUnits="userSpaceOnUse" gradientTransform="translate(10.8864 54.4848) scale(21.3769)">
<stop stop-color="#48B146"/>
<stop offset="1" stop-color="#086948"/>
</radialGradient>
<radialGradient id="paint1_radial_141_17679" cx="0" cy="0" r="1" gradientUnits="userSpaceOnUse" gradientTransform="translate(9.19459 32.2716) scale(23.7249)">
<stop stop-color="#48B146"/>
<stop offset="1" stop-color="#086948"/>
</radialGradient>
<radialGradient id="paint2_radial_141_17679" cx="0" cy="0" r="1" gradientUnits="userSpaceOnUse" gradientTransform="translate(9.75145 37.8022) scale(19.3993)">
<stop stop-color="#EDFFF5"/>
<stop offset="1" stop-color="#51BEF4"/>
</radialGradient>
<radialGradient id="paint3_radial_141_17679" cx="0" cy="0" r="1" gradientUnits="userSpaceOnUse" gradientTransform="translate(13.1486 13.3097) scale(4.15572)">
<stop stop-color="#EDFFF5"/>
<stop offset="1" stop-color="#51BEF4"/>
</radialGradient>
</defs>
</svg>
